# WaveFront *.obj file (generated by Cheetah3D)

mtllib Bullet.mtl

g Cone
v 0.000000 0.000000 0.487377
v 0.000000 -0.500000 0.487377
v 0.154509 -0.475528 0.487377
v 0.293893 -0.404509 0.487377
v 0.404509 -0.293893 0.487377
v 0.475528 -0.154508 0.487377
v 0.500000 0.000000 0.487377
v 0.475528 0.154509 0.487377
v 0.404509 0.293893 0.487377
v 0.293893 0.404509 0.487377
v 0.154508 0.475528 0.487377
v -0.000000 0.500000 0.487377
v -0.154508 0.475528 0.487377
v -0.293893 0.404508 0.487377
v -0.404509 0.293893 0.487377
v -0.475528 0.154509 0.487377
v -0.500000 -0.000000 0.487377
v -0.475528 -0.154509 0.487377
v -0.404508 -0.293893 0.487377
v -0.293892 -0.404509 0.487377
v -0.154508 -0.475528 0.487377
v 0.000000 0.000000 2.587377

vt 0.500000 0.500000
vt 0.500000 0.000000
vt 0.654509 0.024472
vt 0.793893 0.095492
vt 0.904509 0.206107
vt 0.975528 0.345492
vt 1.000000 0.500000
vt 0.975528 0.654509
vt 0.904509 0.793893
vt 0.793893 0.904509
vt 0.654508 0.975528
vt 0.500000 1.000000
vt 0.345492 0.975528
vt 0.206107 0.904508
vt 0.095491 0.793893
vt 0.024472 0.654509
vt 0.000000 0.500000
vt 0.024472 0.345491
vt 0.095492 0.206107
vt 0.206108 0.095491
vt 0.345492 0.024472
vt 0.050000 1.000000
vt 0.050000 0.000000
vt 0.000000 0.000000
vt 0.100000 1.000000
vt 0.100000 0.000000
vt 0.150000 1.000000
vt 0.150000 0.000000
vt 0.200000 1.000000
vt 0.200000 0.000000
vt 0.250000 1.000000
vt 0.250000 0.000000
vt 0.300000 1.000000
vt 0.300000 0.000000
vt 0.350000 1.000000
vt 0.350000 0.000000
vt 0.400000 1.000000
vt 0.400000 0.000000
vt 0.450000 1.000000
vt 0.450000 0.000000
vt 0.500000 1.000000
vt 0.550000 1.000000
vt 0.550000 0.000000
vt 0.600000 1.000000
vt 0.600000 0.000000
vt 0.650000 1.000000
vt 0.650000 0.000000
vt 0.700000 1.000000
vt 0.700000 0.000000
vt 0.750000 1.000000
vt 0.750000 0.000000
vt 0.800000 1.000000
vt 0.800000 0.000000
vt 0.850000 1.000000
vt 0.850000 0.000000
vt 0.900000 1.000000
vt 0.900000 0.000000
vt 0.950000 1.000000
vt 0.950000 0.000000
vt 1.000000 1.000000
vt 1.000000 0.000000

vn 0.000000 -0.000000 -1.000000
vn 0.151396 -0.955877 0.251750
vn 0.300614 -0.925194 0.231621
vn -0.000000 -0.972806 0.231621
vn 0.439368 -0.862309 0.251750
vn 0.571801 -0.787017 0.231621
vn 0.684332 -0.684332 0.251750
vn 0.787017 -0.571801 0.231621
vn 0.862309 -0.439368 0.251750
vn 0.925194 -0.300614 0.231621
vn 0.955877 -0.151396 0.251750
vn 0.972806 0.000000 0.231621
vn 0.955877 0.151396 0.251750
vn 0.925194 0.300614 0.231621
vn 0.862309 0.439368 0.251750
vn 0.787017 0.571801 0.231621
vn 0.684332 0.684332 0.251750
vn 0.571801 0.787017 0.231621
vn 0.439368 0.862309 0.251750
vn 0.300614 0.925194 0.231621
vn 0.151396 0.955877 0.251750
vn -0.000000 0.972806 0.231621
vn -0.151396 0.955877 0.251750
vn -0.300614 0.925194 0.231621
vn -0.439369 0.862309 0.251750
vn -0.571801 0.787017 0.231621
vn -0.684332 0.684332 0.251750
vn -0.787017 0.571801 0.231621
vn -0.862309 0.439368 0.251750
vn -0.925194 0.300614 0.231621
vn -0.955877 0.151396 0.251750
vn -0.972806 0.000000 0.231621
vn -0.955877 -0.151396 0.251750
vn -0.925194 -0.300614 0.231621
vn -0.862309 -0.439369 0.251750
vn -0.787017 -0.571801 0.231621
vn -0.684332 -0.684333 0.251750
vn -0.571801 -0.787017 0.231621
vn -0.439368 -0.862309 0.251750
vn -0.300614 -0.925194 0.231621
vn -0.151396 -0.955877 0.251750

usemtl default
f 3/3/1 2/2/1 1/1/1
f 4/4/1 3/3/1 1/1/1
f 5/5/1 4/4/1 1/1/1
f 6/6/1 5/5/1 1/1/1
f 7/7/1 6/6/1 1/1/1
f 8/8/1 7/7/1 1/1/1
f 9/9/1 8/8/1 1/1/1
f 10/10/1 9/9/1 1/1/1
f 11/11/1 10/10/1 1/1/1
f 12/12/1 11/11/1 1/1/1
f 13/13/1 12/12/1 1/1/1
f 14/14/1 13/13/1 1/1/1
f 15/15/1 14/14/1 1/1/1
f 16/16/1 15/15/1 1/1/1
f 17/17/1 16/16/1 1/1/1
f 18/18/1 17/17/1 1/1/1
f 19/19/1 18/18/1 1/1/1
f 20/20/1 19/19/1 1/1/1
f 21/21/1 20/20/1 1/1/1
f 2/2/1 21/21/1 1/1/1
f 2/24/4 3/23/3 22/22/2
f 3/23/3 4/26/6 22/25/5
f 4/26/6 5/28/8 22/27/7
f 5/28/8 6/30/10 22/29/9
f 6/30/10 7/32/12 22/31/11
f 7/32/12 8/34/14 22/33/13
f 8/34/14 9/36/16 22/35/15
f 9/36/16 10/38/18 22/37/17
f 10/38/18 11/40/20 22/39/19
f 11/40/20 12/2/22 22/41/21
f 12/2/22 13/43/24 22/42/23
f 13/43/24 14/45/26 22/44/25
f 14/45/26 15/47/28 22/46/27
f 15/47/28 16/49/30 22/48/29
f 16/49/30 17/51/32 22/50/31
f 17/51/32 18/53/34 22/52/33
f 18/53/34 19/55/36 22/54/35
f 19/55/36 20/57/38 22/56/37
f 20/57/38 21/59/40 22/58/39
f 21/59/40 2/61/4 22/60/41

g Cylinder
v 0.000000 -0.000000 -1.538451
v 0.000000 -0.500000 -1.538451
v 0.103956 -0.489074 -1.538451
v 0.203368 -0.456773 -1.538451
v 0.293893 -0.404509 -1.538451
v 0.371572 -0.334565 -1.538451
v 0.433013 -0.250000 -1.538451
v 0.475528 -0.154508 -1.538451
v 0.497261 -0.052264 -1.538451
v 0.497261 0.052264 -1.538451
v 0.475528 0.154509 -1.538451
v 0.433013 0.250000 -1.538451
v 0.371572 0.334565 -1.538451
v 0.293893 0.404509 -1.538451
v 0.203368 0.456773 -1.538451
v 0.103956 0.489074 -1.538451
v -0.000000 0.500000 -1.538451
v -0.103956 0.489074 -1.538451
v -0.203368 0.456773 -1.538451
v -0.293893 0.404508 -1.538451
v -0.371572 0.334565 -1.538451
v -0.433013 0.250000 -1.538451
v -0.475528 0.154509 -1.538451
v -0.497261 0.052264 -1.538451
v -0.497261 -0.052264 -1.538451
v -0.475528 -0.154509 -1.538451
v -0.433013 -0.250000 -1.538451
v -0.371572 -0.334565 -1.538451
v -0.293892 -0.404509 -1.538451
v -0.203368 -0.456773 -1.538451
v -0.103956 -0.489074 -1.538451
v 0.103956 -0.489074 0.461549
v 0.000000 -0.500000 0.461549
v 0.000000 0.000000 0.461549
v 0.203368 -0.456773 0.461549
v 0.293893 -0.404509 0.461549
v 0.371572 -0.334565 0.461549
v 0.433013 -0.250000 0.461549
v 0.475528 -0.154508 0.461549
v 0.497261 -0.052264 0.461549
v 0.497261 0.052264 0.461549
v 0.475528 0.154509 0.461549
v 0.433013 0.250000 0.461549
v 0.371572 0.334565 0.461549
v 0.293893 0.404509 0.461549
v 0.203368 0.456773 0.461549
v 0.103956 0.489074 0.461549
v -0.000000 0.500000 0.461549
v -0.103956 0.489074 0.461549
v -0.203368 0.456773 0.461549
v -0.293893 0.404508 0.461549
v -0.371572 0.334565 0.461549
v -0.433013 0.250000 0.461549
v -0.475528 0.154509 0.461549
v -0.497261 0.052264 0.461549
v -0.497261 -0.052264 0.461549
v -0.475528 -0.154509 0.461549
v -0.433013 -0.250000 0.461549
v -0.371572 -0.334565 0.461549
v -0.293892 -0.404509 0.461549
v -0.203368 -0.456773 0.461549
v -0.103956 -0.489074 0.461549

vt 0.500000 0.500000
vt 0.500000 0.000000
vt 0.603956 0.010926
vt 0.703368 0.043227
vt 0.793893 0.095492
vt 0.871572 0.165435
vt 0.933013 0.250000
vt 0.975528 0.345492
vt 0.997261 0.447736
vt 0.997261 0.552264
vt 0.975528 0.654509
vt 0.933013 0.750000
vt 0.871572 0.834565
vt 0.793893 0.904509
vt 0.703368 0.956773
vt 0.603956 0.989074
vt 0.500000 1.000000
vt 0.396044 0.989074
vt 0.296632 0.956773
vt 0.206107 0.904508
vt 0.128428 0.834565
vt 0.066987 0.750000
vt 0.024472 0.654509
vt 0.002739 0.552264
vt 0.002739 0.447736
vt 0.024472 0.345491
vt 0.066987 0.250000
vt 0.128428 0.165435
vt 0.206108 0.095491
vt 0.296632 0.043227
vt 0.396044 0.010926
vt 0.000000 0.000000
vt 0.000000 1.000000
vt 0.033333 1.000000
vt 0.033333 0.000000
vt 0.066667 1.000000
vt 0.066667 0.000000
vt 0.100000 1.000000
vt 0.100000 0.000000
vt 0.133333 1.000000
vt 0.133333 0.000000
vt 0.166667 1.000000
vt 0.166667 0.000000
vt 0.200000 1.000000
vt 0.200000 0.000000
vt 0.233333 1.000000
vt 0.233333 0.000000
vt 0.266667 1.000000
vt 0.266667 0.000000
vt 0.300000 1.000000
vt 0.300000 0.000000
vt 0.333333 1.000000
vt 0.333333 0.000000
vt 0.366667 1.000000
vt 0.366667 0.000000
vt 0.400000 1.000000
vt 0.400000 0.000000
vt 0.433333 1.000000
vt 0.433333 0.000000
vt 0.466667 1.000000
vt 0.466667 0.000000
vt 0.500000 1.000000
vt 0.533333 1.000000
vt 0.533333 0.000000
vt 0.566667 1.000000
vt 0.566667 0.000000
vt 0.600000 1.000000
vt 0.600000 0.000000
vt 0.633333 1.000000
vt 0.633333 0.000000
vt 0.666667 1.000000
vt 0.666667 0.000000
vt 0.700000 1.000000
vt 0.700000 0.000000
vt 0.733333 1.000000
vt 0.733333 0.000000
vt 0.766667 1.000000
vt 0.766667 0.000000
vt 0.800000 1.000000
vt 0.800000 0.000000
vt 0.833333 1.000000
vt 0.833333 0.000000
vt 0.866667 1.000000
vt 0.866667 0.000000
vt 0.900000 1.000000
vt 0.900000 0.000000
vt 0.933333 1.000000
vt 0.933333 0.000000
vt 0.966667 1.000000
vt 0.966667 0.000000
vt 1.000000 1.000000
vt 1.000000 0.000000

vn 0.000000 -0.000000 -1.000000
vn 0.000000 0.000000 1.000000
vn -0.000000 -1.000000 -0.000000
vn 0.207912 -0.978148 0.000000
vn 0.406737 -0.913545 -0.000000
vn 0.587785 -0.809017 -0.000000
vn 0.743145 -0.669131 0.000000
vn 0.866025 -0.500000 0.000000
vn 0.951057 -0.309017 0.000000
vn 0.994522 -0.104528 0.000000
vn 0.994522 0.104529 -0.000000
vn 0.951056 0.309017 -0.000000
vn 0.866025 0.500000 -0.000000
vn 0.743145 0.669131 -0.000000
vn 0.587785 0.809017 0.000000
vn 0.406737 0.913545 0.000000
vn 0.207912 0.978148 -0.000000
vn -0.000000 1.000000 -0.000000
vn -0.207912 0.978148 0.000000
vn -0.406737 0.913545 0.000000
vn -0.587785 0.809017 -0.000000
vn -0.743145 0.669130 -0.000000
vn -0.866025 0.500000 -0.000000
vn -0.951057 0.309017 -0.000000
vn -0.994522 0.104528 -0.000000
vn -0.994522 -0.104529 0.000000
vn -0.951056 -0.309017 0.000000
vn -0.866025 -0.500000 0.000000
vn -0.743145 -0.669131 0.000000
vn -0.587785 -0.809017 0.000000
vn -0.406736 -0.913546 0.000000
vn -0.207912 -0.978148 -0.000000

usemtl default
f 25/64/42 24/63/42 23/62/42
f 26/65/42 25/64/42 23/62/42
f 27/66/42 26/65/42 23/62/42
f 28/67/42 27/66/42 23/62/42
f 29/68/42 28/67/42 23/62/42
f 30/69/42 29/68/42 23/62/42
f 31/70/42 30/69/42 23/62/42
f 32/71/42 31/70/42 23/62/42
f 33/72/42 32/71/42 23/62/42
f 34/73/42 33/72/42 23/62/42
f 35/74/42 34/73/42 23/62/42
f 36/75/42 35/74/42 23/62/42
f 37/76/42 36/75/42 23/62/42
f 38/77/42 37/76/42 23/62/42
f 39/78/42 38/77/42 23/62/42
f 40/79/42 39/78/42 23/62/42
f 41/80/42 40/79/42 23/62/42
f 42/81/42 41/80/42 23/62/42
f 43/82/42 42/81/42 23/62/42
f 44/83/42 43/82/42 23/62/42
f 45/84/42 44/83/42 23/62/42
f 46/85/42 45/84/42 23/62/42
f 47/86/42 46/85/42 23/62/42
f 48/87/42 47/86/42 23/62/42
f 49/88/42 48/87/42 23/62/42
f 50/89/42 49/88/42 23/62/42
f 51/90/42 50/89/42 23/62/42
f 52/91/42 51/90/42 23/62/42
f 53/92/42 52/91/42 23/62/42
f 24/63/42 53/92/42 23/62/42
f 56/62/43 55/63/43 54/64/43
f 56/62/43 54/64/43 57/65/43
f 56/62/43 57/65/43 58/66/43
f 56/62/43 58/66/43 59/67/43
f 56/62/43 59/67/43 60/68/43
f 56/62/43 60/68/43 61/69/43
f 56/62/43 61/69/43 62/70/43
f 56/62/43 62/70/43 63/71/43
f 56/62/43 63/71/43 64/72/43
f 56/62/43 64/72/43 65/73/43
f 56/62/43 65/73/43 66/74/43
f 56/62/43 66/74/43 67/75/43
f 56/62/43 67/75/43 68/76/43
f 56/62/43 68/76/43 69/77/43
f 56/62/43 69/77/43 70/78/43
f 56/62/43 70/78/43 71/79/43
f 56/62/43 71/79/43 72/80/43
f 56/62/43 72/80/43 73/81/43
f 56/62/43 73/81/43 74/82/43
f 56/62/43 74/82/43 75/83/43
f 56/62/43 75/83/43 76/84/43
f 56/62/43 76/84/43 77/85/43
f 56/62/43 77/85/43 78/86/43
f 56/62/43 78/86/43 79/87/43
f 56/62/43 79/87/43 80/88/43
f 56/62/43 80/88/43 81/89/43
f 56/62/43 81/89/43 82/90/43
f 56/62/43 82/90/43 83/91/43
f 56/62/43 83/91/43 84/92/43
f 56/62/43 84/92/43 55/63/43
f 25/96/45 54/95/45 55/94/44 24/93/44
f 26/98/46 57/97/46 54/95/45 25/96/45
f 27/100/47 58/99/47 57/97/46 26/98/46
f 28/102/48 59/101/48 58/99/47 27/100/47
f 29/104/49 60/103/49 59/101/48 28/102/48
f 30/106/50 61/105/50 60/103/49 29/104/49
f 31/108/51 62/107/51 61/105/50 30/106/50
f 32/110/52 63/109/52 62/107/51 31/108/51
f 33/112/53 64/111/53 63/109/52 32/110/52
f 34/114/54 65/113/54 64/111/53 33/112/53
f 35/116/55 66/115/55 65/113/54 34/114/54
f 36/118/56 67/117/56 66/115/55 35/116/55
f 37/120/57 68/119/57 67/117/56 36/118/56
f 38/122/58 69/121/58 68/119/57 37/120/57
f 39/63/59 70/123/59 69/121/58 38/122/58
f 40/125/60 71/124/60 70/123/59 39/63/59
f 41/127/61 72/126/61 71/124/60 40/125/60
f 42/129/62 73/128/62 72/126/61 41/127/61
f 43/131/63 74/130/63 73/128/62 42/129/62
f 44/133/64 75/132/64 74/130/63 43/131/63
f 45/135/65 76/134/65 75/132/64 44/133/64
f 46/137/66 77/136/66 76/134/65 45/135/65
f 47/139/67 78/138/67 77/136/66 46/137/66
f 48/141/68 79/140/68 78/138/67 47/139/67
f 49/143/69 80/142/69 79/140/68 48/141/68
f 50/145/70 81/144/70 80/142/69 49/143/69
f 51/147/71 82/146/71 81/144/70 50/145/70
f 52/149/72 83/148/72 82/146/71 51/147/71
f 53/151/73 84/150/73 83/148/72 52/149/72
f 24/153/44 55/152/44 84/150/73 53/151/73

